<svg width="55" height="60" viewBox="0 0 55 60" fill="none" xmlns="http://www.w3.org/2000/svg">
<path d="M54.4902 58.5056L50.007 16.7372C49.9323 16.0648 49.3345 15.5417 48.662 15.5417H40.3681V13.0012C40.3681 5.82814 34.54 0 27.3669 0C20.1938 0 14.3656 5.82814 14.3656 13.0012V15.5417H5.84758C5.1751 15.5417 4.57734 16.0648 4.50262 16.7372L0.0194368 58.5056C-0.055283 58.8792 0.0941565 59.2528 0.318316 59.5517C0.542475 59.8506 0.916074 60 1.28967 60H53.2199C53.5935 60 53.9671 59.8506 54.1913 59.5517C54.4154 59.2528 54.5649 58.8792 54.4902 58.5056ZM39.0232 23.0884C39.6957 23.0884 40.2187 23.6115 40.2187 24.2839C40.2187 24.9564 39.6957 25.4795 39.0232 25.4795C38.3507 25.4795 37.8277 24.9564 37.8277 24.2839C37.8277 23.6115 38.3507 23.0884 39.0232 23.0884ZM17.0556 13.0012C17.0556 7.32254 21.6882 2.68991 27.3669 2.68991C33.0456 2.68991 37.6782 7.32254 37.6782 13.0012V15.5417H17.0556V13.0012ZM15.7106 23.0884C16.3831 23.0884 16.9061 23.6115 16.9061 24.2839C16.9061 24.9564 16.3831 25.4795 15.7106 25.4795C15.0381 25.4795 14.5151 24.9564 14.5151 24.2839C14.5151 23.6115 15.0381 23.0884 15.7106 23.0884ZM2.85879 57.2354L7.0431 18.1569H14.3656V20.6227C12.8712 21.1457 11.8252 22.5654 11.8252 24.2092C11.8252 26.3014 13.5437 28.0199 15.6359 28.0199C17.728 28.0199 19.4466 26.3014 19.4466 24.2092C19.4466 22.5654 18.4005 21.1457 16.9061 20.6227V18.1569H37.5288V20.6227C36.0344 21.1457 34.9883 22.5654 34.9883 24.2092C34.9883 26.3014 36.7069 28.0199 38.799 28.0199C40.8912 28.0199 42.6097 26.3014 42.6097 24.2092C42.6097 22.5654 41.5636 21.1457 40.0692 20.6227V18.1569H47.6907L51.875 57.2354H2.85879Z" fill="#313B54"/>
</svg>
