<svg width="67" height="60" viewBox="0 0 67 60" fill="none" xmlns="http://www.w3.org/2000/svg">
<path d="M60.7146 5.65853C53.1698 -1.88618 40.8935 -1.88618 33.3486 5.65853L33.1911 5.81597L33.0337 5.65853C25.489 -1.88618 13.2127 -1.88604 5.66771 5.65866C2.01279 9.31346 0 14.1728 0 19.3417C0 24.5105 2.01279 29.3698 5.66771 33.0248L32.2635 59.6204C32.7697 60.1266 33.6128 60.1265 34.119 59.6204L45.0672 48.6724C46.2639 47.4757 44.4086 45.6204 43.2118 46.8168L33.1912 56.8372L7.52319 31.1691C1.00147 24.6474 1.00147 14.0357 7.52319 7.51401C14.045 0.99229 24.6566 0.99229 31.1782 7.51401L32.2634 8.59919C32.7692 9.10484 33.6131 9.10484 34.119 8.59919L35.2042 7.51401C41.726 0.99229 52.3376 0.992421 58.8593 7.51414C62.0185 10.6734 63.7584 14.8737 63.7584 19.3416C63.7584 23.8094 62.0185 28.0098 58.8592 31.169L50.8629 39.1652C49.6662 40.362 51.5218 42.2176 52.7183 41.0208L60.7146 33.0246C64.3696 29.3697 66.3825 24.5102 66.3825 19.3414C66.3825 14.1728 64.3696 9.31346 60.7146 5.65853V5.65853Z" fill="#313B54"/>
<path d="M49.3611 43.4328C49.1463 42.9169 48.6107 42.585 48.0529 42.6266C47.5053 42.6674 47.0325 43.0571 46.8858 43.5857C46.5712 44.7205 47.8638 45.6697 48.8532 45.0415C49.3855 44.7035 49.5997 44.0146 49.3611 43.4328Z" fill="#313B54"/>
</svg>
