<svg width="60" height="60" viewBox="0 0 60 60" fill="none" xmlns="http://www.w3.org/2000/svg">
<path d="M57.6562 27.6562H2.34375C1.0493 27.6562 0 28.7055 0 30C0 31.2945 1.0493 32.3438 2.34375 32.3438H57.6562C58.9507 32.3438 60 31.2945 60 30C60 28.7055 58.9507 27.6562 57.6562 27.6562Z" fill="#313B54"/>
<path d="M57.6562 8.90625H2.34375C1.0493 8.90625 0 9.95555 0 11.25C0 12.5445 1.0493 13.5938 2.34375 13.5938H57.6562C58.9507 13.5938 60 12.5445 60 11.25C60 9.95555 58.9507 8.90625 57.6562 8.90625Z" fill="#313B54"/>
<path d="M57.6562 46.4062H2.34375C1.0493 46.4062 0 47.4555 0 48.75C0 50.0445 1.0493 51.0938 2.34375 51.0938H57.6562C58.9507 51.0938 60 50.0445 60 48.75C60 47.4555 58.9507 46.4062 57.6562 46.4062Z" fill="#313B54"/>
</svg>
