<svg width="60" height="60" viewBox="0 0 60 60" fill="none" xmlns="http://www.w3.org/2000/svg">
<path d="M29.9999 0C13.4583 0 0 13.4583 0 29.9999C0 46.5416 13.4583 59.9999 29.9999 59.9999C46.5416 59.9999 59.9999 46.5416 59.9999 29.9999C59.9999 13.4583 46.5417 0 29.9999 0ZM29.9999 57.3912C14.8956 57.3912 2.60865 45.1043 2.60865 29.9999C2.60865 14.8956 14.8956 2.60865 29.9999 2.60865C45.1043 2.60865 57.3912 14.8956 57.3912 29.9999C57.3912 45.1043 45.1043 57.3912 29.9999 57.3912Z" fill="#313B54"/>
<path d="M30 28.6957C20.6504 28.6957 13.0435 36.3026 13.0435 45.6522C13.0435 46.3722 13.6278 46.9566 14.3478 46.9566C15.0678 46.9566 15.6522 46.3721 15.6522 45.6521C15.6522 37.7399 22.0878 31.3043 30 31.3043C37.9122 31.3043 44.3478 37.7399 44.3478 45.6521C44.3478 46.3721 44.9322 46.9565 45.6522 46.9565C46.3722 46.9565 46.9566 46.3721 46.9566 45.6521C46.9566 36.3026 39.3496 28.6957 30 28.6957Z" fill="#313B54"/>
<path d="M30 7.82605C24.9652 7.82605 20.8695 11.9217 20.8695 16.9565C20.8695 21.9914 24.9651 26.087 30 26.087C35.0348 26.087 39.1305 21.9913 39.1305 16.9565C39.1305 11.9218 35.0348 7.82605 30 7.82605ZM30 23.4782C26.4052 23.4782 23.4783 20.5513 23.4783 16.9565C23.4783 13.3618 26.4052 10.4348 30 10.4348C33.5947 10.4348 36.5217 13.3618 36.5217 16.9565C36.5217 20.5513 33.5948 23.4782 30 23.4782Z" fill="#313B54"/>
</svg>
