<svg width="60" height="60" viewBox="0 0 60 60" fill="none" xmlns="http://www.w3.org/2000/svg">
<g clip-path="url(#clip0)">
<path d="M23.7494 47.4999C10.6546 47.4999 0 36.8453 0 23.751C0 10.6561 10.6546 0.0015564 23.7494 0.0015564C36.8438 0.0015564 47.4984 10.6561 47.4984 23.751C47.4984 36.8453 36.8438 47.4999 23.7494 47.4999V47.4999ZM23.7494 3.75144C12.7222 3.75144 3.74988 12.7238 3.74988 23.751C3.74988 34.7782 12.7222 43.75 23.7494 43.75C34.7766 43.75 43.7485 34.7782 43.7485 23.751C43.7485 12.7238 34.7766 3.75144 23.7494 3.75144V3.75144Z" fill="#313B54"/>
<path d="M58.1232 60C57.643 60 57.1633 59.8174 56.798 59.4502L37.8989 40.5507C37.1665 39.8183 37.1665 38.6309 37.8989 37.898C38.6313 37.1656 39.8187 37.1656 40.5511 37.898L59.4507 56.7976C60.1831 57.53 60.1831 58.7174 59.4507 59.4502C59.0831 59.8174 58.6034 60 58.1232 60V60Z" fill="#313B54"/>
</g>
<defs>
<clipPath id="clip0">
<rect width="60" height="60" fill="white"/>
</clipPath>
</defs>
</svg>
