<svg width="65" height="65" viewBox="0 0 65 65" fill="none" xmlns="http://www.w3.org/2000/svg">
<g clip-path="url(#clip0)">
<path d="M18.1041 0C13.2751 0 8.90186 0.717565 5.63259 1.93723C3.99806 2.54695 2.63305 3.2794 1.62047 4.17248C0.6079 5.06556 -0.0749512 6.18178 -0.0749512 7.41755V20.1334V45.5652C-0.0749512 46.8009 0.69675 47.9174 1.7091 48.8105C2.72167 49.7035 4.08669 50.4358 5.72144 51.0455C8.99049 52.2652 13.3637 52.9827 18.1927 52.9827C21.0271 52.9827 23.6683 52.7091 26.0574 52.2583V50.0894C23.7262 50.5637 21.0684 50.8634 18.1927 50.8634C13.6093 50.8634 9.46382 50.1569 6.56472 49.0754C5.11517 48.5345 3.98375 47.8987 3.27136 47.2706C2.55919 46.6424 2.19743 46.085 2.19743 45.5652V42.8994C3.13274 43.5914 4.28325 44.1842 5.63259 44.6875C8.90186 45.9072 13.2751 46.6248 18.1041 46.6248C20.9739 46.6248 23.6455 46.3454 26.0574 45.8839V43.7107C23.7062 44.1963 21.0164 44.5055 18.1041 44.5055C13.5207 44.5055 9.37497 43.7989 6.47587 42.7174C5.02632 42.1766 3.8949 41.5408 3.18273 40.9126C2.47034 40.2845 2.19743 39.7271 2.19743 39.2072V36.5416C3.13274 37.2335 4.28325 37.8263 5.63259 38.3296C8.90186 39.5493 13.2751 40.2668 18.1041 40.2668C20.9739 40.2668 23.6455 39.9875 26.0574 39.5259V37.3528C23.7062 37.8383 21.0164 38.1476 18.1041 38.1476C13.5207 38.1476 9.37497 37.441 6.47587 36.3595C5.02632 35.8186 3.8949 35.1828 3.18273 34.5547C2.47034 33.9265 2.19743 33.3692 2.19743 32.8493V30.1836C3.13274 30.8756 4.28325 31.4683 5.63259 31.9717C8.90186 33.1913 13.2751 33.9089 18.1041 33.9089C20.9739 33.9089 23.6455 33.6296 26.0574 33.168V32.8493C26.0574 32.1688 26.1892 31.5381 26.3815 30.9328C23.96 31.4594 21.1491 31.7896 18.1041 31.7896C13.5207 31.7896 9.37497 31.0831 6.47587 30.0015C5.02632 29.4607 3.8949 28.8249 3.18273 28.1968C2.47034 27.5686 2.19743 27.0112 2.19743 26.4913V23.8257C2.62896 24.1448 3.11479 24.439 3.63994 24.7156C4.24848 25.04 4.90611 25.3429 5.63259 25.6137C8.90186 26.8334 13.2751 27.5509 18.1041 27.5509C22.9331 27.5509 27.3063 26.8334 30.5756 25.6137C31.3021 25.3429 31.9597 25.04 32.5683 24.7156C33.0934 24.439 33.5792 24.1448 34.0108 23.8257V24.3845C34.7293 24.1196 35.5033 23.8973 36.2831 23.6807V20.1334V7.41755C36.2831 6.18178 35.6003 5.06556 34.5877 4.17248C33.5752 3.2794 32.2101 2.54695 30.5756 1.93723C27.3063 0.717565 22.9331 0 18.1041 0V0ZM18.1041 2.11928C22.6875 2.11928 26.8332 2.82585 29.7323 3.90756C31.1819 4.44819 32.3131 5.08398 33.0255 5.71214C33.7376 6.34052 34.0108 6.89768 34.0108 7.41755C34.0108 7.93742 33.7376 8.49479 33.0255 9.12295C32.3131 9.75112 31.1819 10.3869 29.7323 10.9278C26.8332 12.0092 22.6875 12.7159 18.1041 12.7159C13.5207 12.7159 9.37497 12.0092 6.47587 10.9278C5.02632 10.3869 3.8949 9.75112 3.18273 9.12295C2.47034 8.49479 2.19743 7.93742 2.19743 7.41755C2.19743 6.89768 2.47034 6.34052 3.18273 5.71214C3.8949 5.08398 5.02632 4.44819 6.47587 3.90756C9.37497 2.82585 13.5207 2.11928 18.1041 2.11928ZM2.19743 11.1098C3.13274 11.8018 4.28325 12.3945 5.63259 12.8979C8.90186 14.1175 13.2751 14.8351 18.1041 14.8351C22.9331 14.8351 27.3063 14.1175 30.5756 12.8979C31.9249 12.3945 33.0755 11.8018 34.0108 11.1098V13.7755C34.0108 14.2953 33.7376 14.8527 33.0255 15.4809C32.3131 16.109 31.1819 16.7448 29.7323 17.2857C26.8332 18.3672 22.6875 19.0737 18.1041 19.0737C13.5207 19.0737 9.37497 18.3672 6.47587 17.2857C5.02632 16.7448 3.8949 16.109 3.18273 15.4809C2.47034 14.8527 2.19743 14.2953 2.19743 13.7755V11.1098V11.1098ZM2.19743 17.4677C3.13274 18.1597 4.28325 18.7525 5.63259 19.2558C8.90186 20.4755 13.2751 21.1931 18.1041 21.1931C22.9331 21.1931 27.3063 20.4755 30.5756 19.2558C31.9249 18.7525 33.0755 18.1597 34.0108 17.4677V20.1334C34.0108 20.3934 33.9426 20.662 33.7835 20.9447C33.6267 21.2276 33.3806 21.5247 33.0246 21.8388C32.3122 22.467 31.181 23.1028 29.7314 23.6436C27.557 24.4547 24.6806 25.054 21.4452 25.3035C20.3667 25.3861 19.2489 25.4327 18.1032 25.4327C13.5198 25.4327 9.37406 24.7259 6.47496 23.6444C5.02541 23.1038 3.89399 22.468 3.18183 21.8399C2.46943 21.2115 2.19652 20.6543 2.19652 20.1345V17.4688L2.19743 17.4677Z" fill="#C9B33B"/>
<path d="M46.509 24.3719C41.68 24.3719 37.3068 25.0896 34.0375 26.3092C32.403 26.9189 31.038 27.6514 30.0254 28.5445C29.0128 29.4376 28.33 30.5538 28.33 31.7896V57.2212C28.33 58.457 29.0128 59.5735 30.0254 60.4666C31.038 61.3597 32.403 62.0919 34.0375 62.7016C37.3068 63.9213 41.68 64.6388 46.509 64.6388C51.338 64.6388 55.7112 63.9213 58.9805 62.7016C60.615 62.0919 61.9801 61.3597 62.9926 60.4666C64.0052 59.5735 64.688 58.457 64.688 57.2212V31.7896C64.688 30.5538 64.0052 29.4376 62.9926 28.5445C61.9801 27.6514 60.615 26.9189 58.9805 26.3092C55.7112 25.0896 51.338 24.3719 46.509 24.3719V24.3719ZM46.509 26.4913C51.0924 26.4913 55.2381 27.1979 58.1372 28.2795C59.5868 28.8202 60.718 29.456 61.4304 30.0842C62.1425 30.7125 62.4157 31.2697 62.4157 31.7896C62.4157 32.3094 62.1425 32.8669 61.4304 33.495C60.718 34.1232 59.5868 34.7589 58.1372 35.2998C55.2381 36.3812 51.0924 37.0879 46.509 37.0879C41.9256 37.0879 37.7799 36.3812 34.8808 35.2998C33.4312 34.7589 32.2998 34.1232 31.5876 33.495C30.8752 32.8669 30.6023 32.3094 30.6023 31.7896C30.6023 31.2697 30.8752 30.7125 31.5876 30.0842C32.2998 29.456 33.4312 28.8202 34.8808 28.2795C37.7799 27.1979 41.9256 26.4913 46.509 26.4913ZM30.6023 35.4818C31.0339 35.801 31.5197 36.0952 32.0448 36.3717C32.6534 36.6962 33.311 36.999 34.0375 37.2699C37.3068 38.4895 41.68 39.2072 46.509 39.2072C47.7163 39.2072 48.8973 39.1602 50.0373 39.0757C53.4579 38.8168 56.5286 38.1857 58.9805 37.271C59.707 37.0001 60.3646 36.6972 60.9732 36.3728C61.4983 36.0962 61.9841 35.802 62.4157 35.4829V38.1485C62.4157 38.6684 62.1425 39.2258 61.4304 39.854C60.718 40.4821 59.5868 41.1179 58.1372 41.6587C55.2381 42.7403 51.0924 43.4468 46.509 43.4468C41.9256 43.4468 37.7799 42.7403 34.8808 41.6587C33.4312 41.1179 32.2998 40.4821 31.5876 39.854C30.8752 39.2258 30.6023 38.6684 30.6023 38.1485V35.4829V35.4818ZM30.6023 41.8397C31.5376 42.5317 32.6882 43.1245 34.0375 43.6278C37.3068 44.8475 41.68 45.5651 46.509 45.5651C51.338 45.5651 55.7112 44.8475 58.9805 43.6278C60.3299 43.1245 61.4804 42.5317 62.4157 41.8397V44.5054C62.4157 45.0253 62.1425 45.5826 61.4304 46.2108C60.718 46.839 59.5868 47.4748 58.1372 48.0156C55.2381 49.0971 51.0924 49.8037 46.509 49.8037C41.9256 49.8037 37.7799 49.0971 34.8808 48.0156C33.4312 47.4748 32.2998 46.839 31.5876 46.2108C30.8752 45.5826 30.6023 45.0253 30.6023 44.5054V41.8397V41.8397ZM30.6023 48.1977C31.5376 48.8897 32.6882 49.4824 34.0375 49.9857C37.3068 51.2053 41.68 51.923 46.509 51.923C51.338 51.923 55.7112 51.2053 58.9805 49.9857C60.3299 49.4824 61.4804 48.8897 62.4157 48.1977V50.8634C62.4157 51.3832 62.1425 51.9406 61.4304 52.5688C60.718 53.1969 59.5868 53.8327 58.1372 54.3735C55.2381 55.4551 51.0924 56.1616 46.509 56.1616C41.9256 56.1616 37.7799 55.4551 34.8808 54.3735C33.4312 53.8327 32.2998 53.1969 31.5876 52.5688C30.8752 51.9406 30.6023 51.3832 30.6023 50.8634V48.1977ZM30.6023 54.5556C31.5376 55.2475 32.6882 55.8403 34.0375 56.3437C37.3068 57.5633 41.68 58.2809 46.509 58.2809C51.338 58.2809 55.7112 57.5633 58.9805 56.3437C60.3299 55.8403 61.4804 55.2475 62.4157 54.5556V57.2212C62.4157 57.7411 62.1425 58.2985 61.4304 58.9266C60.718 59.5548 59.5868 60.1906 58.1372 60.7315C55.2381 61.813 51.0924 62.5196 46.509 62.5196C41.9256 62.5196 37.7799 61.813 34.8808 60.7315C33.4312 60.1906 32.2998 59.5548 31.5876 58.9266C30.8752 58.2985 30.6023 57.7411 30.6023 57.2212V54.5556Z" fill="#C9B33B"/>
</g>
<defs>
<clipPath id="clip0">
<rect width="65" height="65" fill="white"/>
</clipPath>
</defs>
</svg>
