<svg width="63" height="65" viewBox="0 0 63 65" fill="none" xmlns="http://www.w3.org/2000/svg">
<path d="M61.1138 30.4084H39.6108C38.7808 26.3057 35.3102 23.2488 31.2359 23.2488C27.1617 23.2488 23.691 26.3057 22.8611 30.4084H1.88623C0.82994 30.4084 0 31.2933 0 32.4196C0 33.5458 0.82994 34.4307 1.88623 34.4307H22.8611C23.691 38.5334 27.1617 41.5904 31.2359 41.5904C35.3102 41.5904 38.7808 38.5334 39.6108 34.4307H61.1138C62.1701 34.4307 63 33.5458 63 32.4196C63 31.3738 62.0946 30.4084 61.1138 30.4084ZM31.2359 37.5681C28.5952 37.5681 26.4072 35.2352 26.4072 32.4196C26.4072 29.604 28.5952 27.2711 31.2359 27.2711C33.8766 27.2711 36.0647 29.604 36.0647 32.4196C36.0647 35.2352 33.8766 37.5681 31.2359 37.5681Z" fill="#C9B33B"/>
<path d="M8.67664 18.3416C12.7509 18.3416 16.2215 15.2847 17.0515 11.1819H61.0383C62.0946 11.1819 62.9245 10.297 62.9245 9.17079C62.9245 8.04455 62.0946 7.15965 61.0383 7.15965H17.0515C16.2215 3.05693 12.7509 0 8.67664 0C3.92334 0 0.0754395 4.18317 0.0754395 9.17079C0.0754395 14.1584 3.92334 18.3416 8.67664 18.3416ZM8.67664 4.02228C11.3174 4.02228 13.5054 6.3552 13.5054 9.17079C13.5054 11.9864 11.3174 14.3193 8.67664 14.3193C6.03592 14.3193 3.84789 11.9864 3.84789 9.17079C3.84789 6.3552 6.03592 4.02228 8.67664 4.02228Z" fill="#C9B33B"/>
<path d="M54.3234 46.6584C50.2491 46.6584 46.8539 49.7154 45.9485 53.7377H1.88623C0.82994 53.7377 0 54.6226 0 55.7488C0 56.875 0.82994 57.7599 1.88623 57.7599H45.9485C46.7784 61.8627 50.2491 65 54.3234 65C59.0766 65 62.9245 60.8973 62.9245 55.8292C62.9245 50.7612 59.0012 46.6584 54.3234 46.6584ZM54.3234 60.8973C51.6826 60.8973 49.4946 58.5644 49.4946 55.7488C49.4946 52.9332 51.6826 50.6003 54.3234 50.6003C56.9641 50.6003 59.1521 52.9332 59.1521 55.7488C59.1521 58.5644 56.9641 60.8973 54.3234 60.8973Z" fill="#C9B33B"/>
</svg>
