<svg width="84" height="87" viewBox="0 0 84 87" fill="none" xmlns="http://www.w3.org/2000/svg">
<path d="M44.7112 13.6454C40.7782 13.6454 36.8971 14.1651 33.1542 15.1923C30.9721 12.4707 27.5759 11.0419 23.2407 11.0419C20.3615 11.0419 18.081 11.6873 17.9855 11.7149C17.4076 11.8805 16.9453 12.3327 16.7488 12.9248C16.5513 13.5169 16.6459 14.1718 16.999 14.6763C18.6179 16.9857 18.4377 18.86 18.1893 21.455C18.1338 22.0337 18.0774 22.6249 18.0382 23.2455C12.9268 27.4968 9.26128 32.8657 7.35392 38.8847H3.20614C2.37167 38.8847 1.64549 39.4777 1.44165 40.324C1.40252 40.4858 0.487061 44.3458 0.487061 49.115C0.487061 53.9165 1.41799 57.3539 1.45803 57.4986C1.68189 58.3134 2.39533 58.875 3.20614 58.875H7.56322C12.6665 72.9445 27.7215 82.655 44.7112 82.655C66.1563 82.655 83.6037 67.1758 83.6037 48.1497C83.6037 29.1236 66.1563 13.6454 44.7112 13.6454ZM44.7112 78.8473C29.0065 78.8473 14.6521 69.3976 10.5799 56.3782C10.3342 55.5966 9.63711 55.0674 8.84905 55.0674H4.65941C4.42099 53.7699 4.12615 51.6519 4.12615 49.115C4.12615 46.482 4.44374 44.124 4.68853 42.6924H8.70072C9.51699 42.6924 10.2341 42.1241 10.4534 41.3016C12.0695 35.2588 15.6868 29.8747 20.9147 25.731C21.3543 25.3816 21.6191 24.8428 21.6346 24.266C21.6564 23.4397 21.7347 22.6249 21.8102 21.8367C22.0186 19.6539 22.2342 17.415 21.2988 14.9628C21.8812 14.8972 22.5409 14.8505 23.2398 14.8505C26.8971 14.8505 29.4706 16.0433 30.8902 18.3955C31.3242 19.1142 32.1623 19.4454 32.9413 19.2056C36.7296 18.0433 40.6881 17.454 44.7094 17.454C64.1479 17.454 79.9619 31.2245 79.9619 48.1516C79.9619 65.0787 64.1498 78.8473 44.7112 78.8473Z" fill="#C9B33B"/>
<path d="M22.8321 41.3729C24.5494 41.3729 25.9416 39.9166 25.9416 38.1202C25.9416 36.3237 24.5494 34.8674 22.8321 34.8674C21.1148 34.8674 19.7227 36.3237 19.7227 38.1202C19.7227 39.9166 21.1148 41.3729 22.8321 41.3729Z" fill="#C9B33B"/>
<path d="M23.8459 81.1748C22.945 81.9259 21.8585 82.3228 20.7028 82.3228C17.9191 82.3228 15.655 79.9535 15.655 77.0416C15.655 76.5047 15.7305 75.9763 15.8816 75.4709C16.1801 74.4666 15.6441 73.3995 14.684 73.0882C13.7231 72.775 12.7039 73.3367 12.4054 74.3409C12.1461 75.2129 12.015 76.122 12.015 77.0425C12.015 82.0544 15.9125 86.1315 20.7028 86.1315C22.6629 86.1315 24.5848 85.4289 26.1146 84.1534C26.9008 83.4984 27.03 82.3 26.403 81.4775C25.7769 80.6541 24.6322 80.5189 23.8459 81.1748Z" fill="#C9B33B"/>
<path d="M74.1726 73.0872C73.2125 73.3994 72.6765 74.4675 72.9759 75.4708C73.127 75.9763 73.2025 76.5046 73.2025 77.0415C73.2025 79.9534 70.9384 82.3228 68.1547 82.3228C66.999 82.3228 65.9125 81.9258 65.0116 81.1747C64.2254 80.5198 63.0806 80.654 62.4536 81.4765C61.8275 82.299 61.9567 83.4965 62.7421 84.1524C64.2718 85.4279 66.1937 86.1305 68.1538 86.1305C72.945 86.1305 76.8416 82.0534 76.8416 77.0415C76.8416 76.121 76.7096 75.2119 76.4503 74.3399C76.1518 73.3347 75.1335 72.775 74.1726 73.0872Z" fill="#C9B33B"/>
<path d="M59.8618 24.8219C59.7344 24.7543 56.6896 23.1512 51.7364 22.3088C46.7851 21.4673 43.4099 21.9794 43.268 22.0023C42.2761 22.1584 41.5945 23.1246 41.741 24.1631C41.8884 25.2017 42.8148 25.9204 43.8058 25.7681C43.8349 25.7643 46.8042 25.3292 51.1522 26.067C55.5011 26.8057 58.1856 28.2022 58.2084 28.2136C58.4732 28.3545 58.7562 28.422 59.0337 28.422C59.6962 28.422 60.335 28.0422 60.6572 27.3825C61.114 26.4449 60.7573 25.2988 59.8618 24.8219Z" fill="#C9B33B"/>
<path d="M61.417 13.7881C61.4826 13.7957 61.5472 13.7986 61.6118 13.7986C62.5309 13.7986 63.3198 13.0732 63.419 12.0956C63.4572 11.7177 63.4773 11.3331 63.4773 10.9447C63.4773 5.00281 58.8554 0.168945 53.1752 0.168945C48.2257 0.168945 43.9687 3.8567 43.0523 8.93806C42.8658 9.9709 43.5155 10.9666 44.5038 11.1618C45.4911 11.355 46.443 10.6772 46.6295 9.64344C47.2219 6.36025 49.9747 3.97664 53.1752 3.97664C56.8488 3.97664 59.8373 7.10275 59.8373 10.9447C59.8373 11.1979 59.8236 11.4473 59.7991 11.6939C59.6935 12.7391 60.4169 13.6777 61.417 13.7881Z" fill="#C9B33B"/>
</svg>
