<svg width="70" height="81" viewBox="0 0 70 81" fill="none" xmlns="http://www.w3.org/2000/svg">
<path d="M62.5817 34.9752H58.2675V20.249C58.2675 9.08242 47.6167 0 34.5324 0C21.4481 0 10.7926 9.08242 10.7926 20.249V34.9752H6.47365C2.90605 34.9752 0 37.4544 0 40.498V75.4772C0 78.5208 2.90605 81 6.47365 81H62.5817C66.1493 81 69.0554 78.5208 69.0554 75.4772V40.498C69.0554 37.4544 66.1493 34.9752 62.5817 34.9752ZM15.1068 20.249C15.1068 11.1142 23.8202 3.68054 34.5277 3.68054C45.2352 3.68054 53.9486 11.1142 53.9486 20.249V34.9752H15.1068V20.249ZM64.7365 75.4772C64.7365 76.4931 63.7678 77.3195 62.577 77.3195H6.47365C5.28288 77.3195 4.31419 76.4931 4.31419 75.4772V40.498C4.31419 39.4821 5.28288 38.6557 6.47365 38.6557H62.5817C63.7725 38.6557 64.7412 39.4821 64.7412 40.498V75.4772H64.7365Z" fill="#C9B33B"/>
<path d="M41.2328 46.174C38.6387 44.4124 35.2648 43.7754 31.9665 44.4325C28.106 45.1985 25.0062 47.8148 24.0659 51.1002C23.0121 54.7727 24.6045 58.5056 28.054 60.7148V66.2739C28.054 69.3175 30.9601 71.7967 34.5277 71.7967C38.0953 71.7967 41.0013 69.3175 41.0013 66.2739V60.7148C43.69 58.9854 45.3155 56.2683 45.3155 53.39C45.3155 50.56 43.827 47.9317 41.2328 46.174ZM37.755 58.1348C37.0935 58.4653 36.6824 59.07 36.6824 59.7271V66.2698C36.6824 67.2857 35.7137 68.1121 34.5229 68.1121C33.3322 68.1121 32.3635 67.2857 32.3635 66.2698V59.7271C32.3635 59.07 31.9524 58.4653 31.2908 58.1348C28.7344 56.8649 27.5437 54.4462 28.2525 51.971C28.8006 50.0521 30.686 48.4638 32.94 48.0163C34.9766 47.6172 36.9612 47.9841 38.5442 49.0524C40.1035 50.1085 40.9966 51.6848 40.9966 53.3819C41.0013 55.3532 39.7869 57.127 37.755 58.1348Z" fill="#C9B33B"/>
</svg>
